<mxfile host="app.diagrams.net" modified="2023-12-10T18:36:14.552Z" agent="Mozilla/5.0 (Windows NT 10.0; Win64; x64) AppleWebKit/537.36 (KHTML, like Gecko) Chrome/119.0.0.0 Safari/537.36" etag="lLZCRTT34RNoWGP55vw0" version="22.1.7" type="device">
  <diagram id="C5RBs43oDa-KdzZeNtuy" name="Page-1">
    <mxGraphModel dx="265" dy="1318" grid="1" gridSize="10" guides="1" tooltips="1" connect="1" arrows="1" fold="1" page="1" pageScale="1" pageWidth="827" pageHeight="1169" math="0" shadow="0">
      <root>
        <mxCell id="WIyWlLk6GJQsqaUBKTNV-0" />
        <mxCell id="WIyWlLk6GJQsqaUBKTNV-1" parent="WIyWlLk6GJQsqaUBKTNV-0" />
        <mxCell id="zkfFHV4jXpPFQw0GAbJ--0" value="Entity" style="swimlane;fontStyle=2;align=center;verticalAlign=top;childLayout=stackLayout;horizontal=1;startSize=26;horizontalStack=0;resizeParent=1;resizeLast=0;collapsible=1;marginBottom=0;rounded=0;shadow=0;strokeWidth=1;" parent="WIyWlLk6GJQsqaUBKTNV-1" vertex="1">
          <mxGeometry x="740" y="960" width="260" height="424" as="geometry">
            <mxRectangle x="230" y="140" width="160" height="26" as="alternateBounds" />
          </mxGeometry>
        </mxCell>
        <mxCell id="zkfFHV4jXpPFQw0GAbJ--1" value="# x : int" style="text;align=left;verticalAlign=top;spacingLeft=4;spacingRight=4;overflow=hidden;rotatable=0;points=[[0,0.5],[1,0.5]];portConstraint=eastwest;" parent="zkfFHV4jXpPFQw0GAbJ--0" vertex="1">
          <mxGeometry y="26" width="260" height="26" as="geometry" />
        </mxCell>
        <mxCell id="-FB-TUwyzD8MLzmzIh0T-0" value="# y : int" style="text;align=left;verticalAlign=top;spacingLeft=4;spacingRight=4;overflow=hidden;rotatable=0;points=[[0,0.5],[1,0.5]];portConstraint=eastwest;" vertex="1" parent="zkfFHV4jXpPFQw0GAbJ--0">
          <mxGeometry y="52" width="260" height="26" as="geometry" />
        </mxCell>
        <mxCell id="-FB-TUwyzD8MLzmzIh0T-1" value="# width : int" style="text;align=left;verticalAlign=top;spacingLeft=4;spacingRight=4;overflow=hidden;rotatable=0;points=[[0,0.5],[1,0.5]];portConstraint=eastwest;" vertex="1" parent="zkfFHV4jXpPFQw0GAbJ--0">
          <mxGeometry y="78" width="260" height="26" as="geometry" />
        </mxCell>
        <mxCell id="-FB-TUwyzD8MLzmzIh0T-2" value="# height : int" style="text;align=left;verticalAlign=top;spacingLeft=4;spacingRight=4;overflow=hidden;rotatable=0;points=[[0,0.5],[1,0.5]];portConstraint=eastwest;" vertex="1" parent="zkfFHV4jXpPFQw0GAbJ--0">
          <mxGeometry y="104" width="260" height="26" as="geometry" />
        </mxCell>
        <mxCell id="-FB-TUwyzD8MLzmzIh0T-3" value="# image : Image" style="text;align=left;verticalAlign=top;spacingLeft=4;spacingRight=4;overflow=hidden;rotatable=0;points=[[0,0.5],[1,0.5]];portConstraint=eastwest;" vertex="1" parent="zkfFHV4jXpPFQw0GAbJ--0">
          <mxGeometry y="130" width="260" height="26" as="geometry" />
        </mxCell>
        <mxCell id="zkfFHV4jXpPFQw0GAbJ--4" value="" style="line;html=1;strokeWidth=1;align=left;verticalAlign=middle;spacingTop=-1;spacingLeft=3;spacingRight=3;rotatable=0;labelPosition=right;points=[];portConstraint=eastwest;" parent="zkfFHV4jXpPFQw0GAbJ--0" vertex="1">
          <mxGeometry y="156" width="260" height="8" as="geometry" />
        </mxCell>
        <mxCell id="zkfFHV4jXpPFQw0GAbJ--5" value="+ Entity(x : int, y : int, w : int, h : int, i : Image)" style="text;align=left;verticalAlign=top;spacingLeft=4;spacingRight=4;overflow=hidden;rotatable=0;points=[[0,0.5],[1,0.5]];portConstraint=eastwest;" parent="zkfFHV4jXpPFQw0GAbJ--0" vertex="1">
          <mxGeometry y="164" width="260" height="26" as="geometry" />
        </mxCell>
        <mxCell id="-FB-TUwyzD8MLzmzIh0T-4" value="+ draw(g : Graphics)" style="text;align=left;verticalAlign=top;spacingLeft=4;spacingRight=4;overflow=hidden;rotatable=0;points=[[0,0.5],[1,0.5]];portConstraint=eastwest;" vertex="1" parent="zkfFHV4jXpPFQw0GAbJ--0">
          <mxGeometry y="190" width="260" height="26" as="geometry" />
        </mxCell>
        <mxCell id="-FB-TUwyzD8MLzmzIh0T-6" value="+ getX() : int" style="text;align=left;verticalAlign=top;spacingLeft=4;spacingRight=4;overflow=hidden;rotatable=0;points=[[0,0.5],[1,0.5]];portConstraint=eastwest;" vertex="1" parent="zkfFHV4jXpPFQw0GAbJ--0">
          <mxGeometry y="216" width="260" height="26" as="geometry" />
        </mxCell>
        <mxCell id="-FB-TUwyzD8MLzmzIh0T-7" value="+ setX(x : int)" style="text;align=left;verticalAlign=top;spacingLeft=4;spacingRight=4;overflow=hidden;rotatable=0;points=[[0,0.5],[1,0.5]];portConstraint=eastwest;" vertex="1" parent="zkfFHV4jXpPFQw0GAbJ--0">
          <mxGeometry y="242" width="260" height="26" as="geometry" />
        </mxCell>
        <mxCell id="-FB-TUwyzD8MLzmzIh0T-8" value="+ getY() : int" style="text;align=left;verticalAlign=top;spacingLeft=4;spacingRight=4;overflow=hidden;rotatable=0;points=[[0,0.5],[1,0.5]];portConstraint=eastwest;" vertex="1" parent="zkfFHV4jXpPFQw0GAbJ--0">
          <mxGeometry y="268" width="260" height="26" as="geometry" />
        </mxCell>
        <mxCell id="-FB-TUwyzD8MLzmzIh0T-9" value="+ setY(y : int)" style="text;align=left;verticalAlign=top;spacingLeft=4;spacingRight=4;overflow=hidden;rotatable=0;points=[[0,0.5],[1,0.5]];portConstraint=eastwest;" vertex="1" parent="zkfFHV4jXpPFQw0GAbJ--0">
          <mxGeometry y="294" width="260" height="26" as="geometry" />
        </mxCell>
        <mxCell id="-FB-TUwyzD8MLzmzIh0T-10" value="+ getWidth() : int" style="text;align=left;verticalAlign=top;spacingLeft=4;spacingRight=4;overflow=hidden;rotatable=0;points=[[0,0.5],[1,0.5]];portConstraint=eastwest;" vertex="1" parent="zkfFHV4jXpPFQw0GAbJ--0">
          <mxGeometry y="320" width="260" height="26" as="geometry" />
        </mxCell>
        <mxCell id="-FB-TUwyzD8MLzmzIh0T-11" value="+ setWidth(w : int)" style="text;align=left;verticalAlign=top;spacingLeft=4;spacingRight=4;overflow=hidden;rotatable=0;points=[[0,0.5],[1,0.5]];portConstraint=eastwest;" vertex="1" parent="zkfFHV4jXpPFQw0GAbJ--0">
          <mxGeometry y="346" width="260" height="26" as="geometry" />
        </mxCell>
        <mxCell id="-FB-TUwyzD8MLzmzIh0T-12" value="+ getHeight() : int" style="text;align=left;verticalAlign=top;spacingLeft=4;spacingRight=4;overflow=hidden;rotatable=0;points=[[0,0.5],[1,0.5]];portConstraint=eastwest;" vertex="1" parent="zkfFHV4jXpPFQw0GAbJ--0">
          <mxGeometry y="372" width="260" height="26" as="geometry" />
        </mxCell>
        <mxCell id="-FB-TUwyzD8MLzmzIh0T-13" value="+ setHeight(h : int)" style="text;align=left;verticalAlign=top;spacingLeft=4;spacingRight=4;overflow=hidden;rotatable=0;points=[[0,0.5],[1,0.5]];portConstraint=eastwest;" vertex="1" parent="zkfFHV4jXpPFQw0GAbJ--0">
          <mxGeometry y="398" width="260" height="26" as="geometry" />
        </mxCell>
        <mxCell id="-FB-TUwyzD8MLzmzIh0T-19" value="Dragon" style="swimlane;fontStyle=0;align=center;verticalAlign=top;childLayout=stackLayout;horizontal=1;startSize=26;horizontalStack=0;resizeParent=1;resizeLast=0;collapsible=1;marginBottom=0;rounded=0;shadow=0;strokeWidth=1;" vertex="1" parent="WIyWlLk6GJQsqaUBKTNV-1">
          <mxGeometry x="1130" y="1140" width="342" height="138" as="geometry">
            <mxRectangle x="550" y="140" width="160" height="26" as="alternateBounds" />
          </mxGeometry>
        </mxCell>
        <mxCell id="-FB-TUwyzD8MLzmzIh0T-20" value="- velX : int" style="text;align=left;verticalAlign=top;spacingLeft=4;spacingRight=4;overflow=hidden;rotatable=0;points=[[0,0.5],[1,0.5]];portConstraint=eastwest;" vertex="1" parent="-FB-TUwyzD8MLzmzIh0T-19">
          <mxGeometry y="26" width="342" height="26" as="geometry" />
        </mxCell>
        <mxCell id="-FB-TUwyzD8MLzmzIh0T-21" value="- velY : int" style="text;align=left;verticalAlign=top;spacingLeft=4;spacingRight=4;overflow=hidden;rotatable=0;points=[[0,0.5],[1,0.5]];portConstraint=eastwest;" vertex="1" parent="-FB-TUwyzD8MLzmzIh0T-19">
          <mxGeometry y="52" width="342" height="26" as="geometry" />
        </mxCell>
        <mxCell id="-FB-TUwyzD8MLzmzIh0T-22" value="" style="line;html=1;strokeWidth=1;align=left;verticalAlign=middle;spacingTop=-1;spacingLeft=3;spacingRight=3;rotatable=0;labelPosition=right;points=[];portConstraint=eastwest;" vertex="1" parent="-FB-TUwyzD8MLzmzIh0T-19">
          <mxGeometry y="78" width="342" height="8" as="geometry" />
        </mxCell>
        <mxCell id="-FB-TUwyzD8MLzmzIh0T-23" value="+ Dragon(x : int, y : int, w : int, h : int, i : Image, vX : int, vY : int)" style="text;align=left;verticalAlign=top;spacingLeft=4;spacingRight=4;overflow=hidden;rotatable=0;points=[[0,0.5],[1,0.5]];portConstraint=eastwest;" vertex="1" parent="-FB-TUwyzD8MLzmzIh0T-19">
          <mxGeometry y="86" width="342" height="26" as="geometry" />
        </mxCell>
        <mxCell id="-FB-TUwyzD8MLzmzIh0T-24" value="+ move(d : Direction)" style="text;align=left;verticalAlign=top;spacingLeft=4;spacingRight=4;overflow=hidden;rotatable=0;points=[[0,0.5],[1,0.5]];portConstraint=eastwest;" vertex="1" parent="-FB-TUwyzD8MLzmzIh0T-19">
          <mxGeometry y="112" width="342" height="26" as="geometry" />
        </mxCell>
        <mxCell id="-FB-TUwyzD8MLzmzIh0T-25" value="Wall" style="swimlane;fontStyle=0;align=center;verticalAlign=top;childLayout=stackLayout;horizontal=1;startSize=26;horizontalStack=0;resizeParent=1;resizeLast=0;collapsible=1;marginBottom=0;rounded=0;shadow=0;strokeWidth=1;" vertex="1" parent="WIyWlLk6GJQsqaUBKTNV-1">
          <mxGeometry x="1130" y="1330" width="342" height="40" as="geometry">
            <mxRectangle x="550" y="140" width="160" height="26" as="alternateBounds" />
          </mxGeometry>
        </mxCell>
        <mxCell id="-FB-TUwyzD8MLzmzIh0T-28" value="" style="line;html=1;strokeWidth=1;align=left;verticalAlign=middle;spacingTop=-1;spacingLeft=3;spacingRight=3;rotatable=0;labelPosition=right;points=[];portConstraint=eastwest;" vertex="1" parent="-FB-TUwyzD8MLzmzIh0T-25">
          <mxGeometry y="26" width="342" height="8" as="geometry" />
        </mxCell>
        <mxCell id="-FB-TUwyzD8MLzmzIh0T-31" value="Board" style="swimlane;fontStyle=0;align=center;verticalAlign=top;childLayout=stackLayout;horizontal=1;startSize=26;horizontalStack=0;resizeParent=1;resizeLast=0;collapsible=1;marginBottom=0;rounded=0;shadow=0;strokeWidth=1;" vertex="1" parent="WIyWlLk6GJQsqaUBKTNV-1">
          <mxGeometry x="740" y="130" width="342" height="736" as="geometry">
            <mxRectangle x="550" y="140" width="160" height="26" as="alternateBounds" />
          </mxGeometry>
        </mxCell>
        <mxCell id="-FB-TUwyzD8MLzmzIh0T-32" value="- entities : ArrayList&lt;Entity&gt;" style="text;align=left;verticalAlign=top;spacingLeft=4;spacingRight=4;overflow=hidden;rotatable=0;points=[[0,0.5],[1,0.5]];portConstraint=eastwest;" vertex="1" parent="-FB-TUwyzD8MLzmzIh0T-31">
          <mxGeometry y="26" width="342" height="26" as="geometry" />
        </mxCell>
        <mxCell id="-FB-TUwyzD8MLzmzIh0T-33" value="- directions : ArrayList&lt;Direction&gt;" style="text;align=left;verticalAlign=top;spacingLeft=4;spacingRight=4;overflow=hidden;rotatable=0;points=[[0,0.5],[1,0.5]];portConstraint=eastwest;" vertex="1" parent="-FB-TUwyzD8MLzmzIh0T-31">
          <mxGeometry y="52" width="342" height="26" as="geometry" />
        </mxCell>
        <mxCell id="-FB-TUwyzD8MLzmzIh0T-40" value="- boardSize : int" style="text;align=left;verticalAlign=top;spacingLeft=4;spacingRight=4;overflow=hidden;rotatable=0;points=[[0,0.5],[1,0.5]];portConstraint=eastwest;" vertex="1" parent="-FB-TUwyzD8MLzmzIh0T-31">
          <mxGeometry y="78" width="342" height="26" as="geometry" />
        </mxCell>
        <mxCell id="-FB-TUwyzD8MLzmzIh0T-39" value="- entitySize : int" style="text;align=left;verticalAlign=top;spacingLeft=4;spacingRight=4;overflow=hidden;rotatable=0;points=[[0,0.5],[1,0.5]];portConstraint=eastwest;" vertex="1" parent="-FB-TUwyzD8MLzmzIh0T-31">
          <mxGeometry y="104" width="342" height="26" as="geometry" />
        </mxCell>
        <mxCell id="-FB-TUwyzD8MLzmzIh0T-43" value="- player : Player" style="text;align=left;verticalAlign=top;spacingLeft=4;spacingRight=4;overflow=hidden;rotatable=0;points=[[0,0.5],[1,0.5]];portConstraint=eastwest;" vertex="1" parent="-FB-TUwyzD8MLzmzIh0T-31">
          <mxGeometry y="130" width="342" height="26" as="geometry" />
        </mxCell>
        <mxCell id="-FB-TUwyzD8MLzmzIh0T-41" value="- dragon : Dragon" style="text;align=left;verticalAlign=top;spacingLeft=4;spacingRight=4;overflow=hidden;rotatable=0;points=[[0,0.5],[1,0.5]];portConstraint=eastwest;" vertex="1" parent="-FB-TUwyzD8MLzmzIh0T-31">
          <mxGeometry y="156" width="342" height="26" as="geometry" />
        </mxCell>
        <mxCell id="-FB-TUwyzD8MLzmzIh0T-44" value="- playerImage : Image" style="text;align=left;verticalAlign=top;spacingLeft=4;spacingRight=4;overflow=hidden;rotatable=0;points=[[0,0.5],[1,0.5]];portConstraint=eastwest;" vertex="1" parent="-FB-TUwyzD8MLzmzIh0T-31">
          <mxGeometry y="182" width="342" height="26" as="geometry" />
        </mxCell>
        <mxCell id="-FB-TUwyzD8MLzmzIh0T-42" value="- dragonImage : Image" style="text;align=left;verticalAlign=top;spacingLeft=4;spacingRight=4;overflow=hidden;rotatable=0;points=[[0,0.5],[1,0.5]];portConstraint=eastwest;" vertex="1" parent="-FB-TUwyzD8MLzmzIh0T-31">
          <mxGeometry y="208" width="342" height="26" as="geometry" />
        </mxCell>
        <mxCell id="-FB-TUwyzD8MLzmzIh0T-45" value="- wallImage : Image" style="text;align=left;verticalAlign=top;spacingLeft=4;spacingRight=4;overflow=hidden;rotatable=0;points=[[0,0.5],[1,0.5]];portConstraint=eastwest;" vertex="1" parent="-FB-TUwyzD8MLzmzIh0T-31">
          <mxGeometry y="234" width="342" height="26" as="geometry" />
        </mxCell>
        <mxCell id="-FB-TUwyzD8MLzmzIh0T-38" value="- over : boolean" style="text;align=left;verticalAlign=top;spacingLeft=4;spacingRight=4;overflow=hidden;rotatable=0;points=[[0,0.5],[1,0.5]];portConstraint=eastwest;" vertex="1" parent="-FB-TUwyzD8MLzmzIh0T-31">
          <mxGeometry y="260" width="342" height="26" as="geometry" />
        </mxCell>
        <mxCell id="-FB-TUwyzD8MLzmzIh0T-47" value="- dragonDirection : Direction" style="text;align=left;verticalAlign=top;spacingLeft=4;spacingRight=4;overflow=hidden;rotatable=0;points=[[0,0.5],[1,0.5]];portConstraint=eastwest;" vertex="1" parent="-FB-TUwyzD8MLzmzIh0T-31">
          <mxGeometry y="286" width="342" height="26" as="geometry" />
        </mxCell>
        <mxCell id="-FB-TUwyzD8MLzmzIh0T-46" value="- PLAYERVEL : int" style="text;align=left;verticalAlign=top;spacingLeft=4;spacingRight=4;overflow=hidden;rotatable=0;points=[[0,0.5],[1,0.5]];portConstraint=eastwest;" vertex="1" parent="-FB-TUwyzD8MLzmzIh0T-31">
          <mxGeometry y="312" width="342" height="26" as="geometry" />
        </mxCell>
        <mxCell id="-FB-TUwyzD8MLzmzIh0T-49" value="- DRAGONVEL : int" style="text;align=left;verticalAlign=top;spacingLeft=4;spacingRight=4;overflow=hidden;rotatable=0;points=[[0,0.5],[1,0.5]];portConstraint=eastwest;" vertex="1" parent="-FB-TUwyzD8MLzmzIh0T-31">
          <mxGeometry y="338" width="342" height="26" as="geometry" />
        </mxCell>
        <mxCell id="-FB-TUwyzD8MLzmzIh0T-50" value="- PLAYERWIDTH : int" style="text;align=left;verticalAlign=top;spacingLeft=4;spacingRight=4;overflow=hidden;rotatable=0;points=[[0,0.5],[1,0.5]];portConstraint=eastwest;" vertex="1" parent="-FB-TUwyzD8MLzmzIh0T-31">
          <mxGeometry y="364" width="342" height="26" as="geometry" />
        </mxCell>
        <mxCell id="-FB-TUwyzD8MLzmzIh0T-48" value="- PLAYERHEIGHT : int" style="text;align=left;verticalAlign=top;spacingLeft=4;spacingRight=4;overflow=hidden;rotatable=0;points=[[0,0.5],[1,0.5]];portConstraint=eastwest;" vertex="1" parent="-FB-TUwyzD8MLzmzIh0T-31">
          <mxGeometry y="390" width="342" height="26" as="geometry" />
        </mxCell>
        <mxCell id="-FB-TUwyzD8MLzmzIh0T-34" value="" style="line;html=1;strokeWidth=1;align=left;verticalAlign=middle;spacingTop=-1;spacingLeft=3;spacingRight=3;rotatable=0;labelPosition=right;points=[];portConstraint=eastwest;" vertex="1" parent="-FB-TUwyzD8MLzmzIh0T-31">
          <mxGeometry y="416" width="342" height="8" as="geometry" />
        </mxCell>
        <mxCell id="-FB-TUwyzD8MLzmzIh0T-35" value="+ Board(boardSIze: int, entitySize : int, mapPath : String)" style="text;align=left;verticalAlign=top;spacingLeft=4;spacingRight=4;overflow=hidden;rotatable=0;points=[[0,0.5],[1,0.5]];portConstraint=eastwest;" vertex="1" parent="-FB-TUwyzD8MLzmzIh0T-31">
          <mxGeometry y="424" width="342" height="26" as="geometry" />
        </mxCell>
        <mxCell id="-FB-TUwyzD8MLzmzIh0T-36" value="+ setupMap(mapPath : String)" style="text;align=left;verticalAlign=top;spacingLeft=4;spacingRight=4;overflow=hidden;rotatable=0;points=[[0,0.5],[1,0.5]];portConstraint=eastwest;" vertex="1" parent="-FB-TUwyzD8MLzmzIh0T-31">
          <mxGeometry y="450" width="342" height="26" as="geometry" />
        </mxCell>
        <mxCell id="-FB-TUwyzD8MLzmzIh0T-51" value="+ movePlayer(d : Direction)" style="text;align=left;verticalAlign=top;spacingLeft=4;spacingRight=4;overflow=hidden;rotatable=0;points=[[0,0.5],[1,0.5]];portConstraint=eastwest;" vertex="1" parent="-FB-TUwyzD8MLzmzIh0T-31">
          <mxGeometry y="476" width="342" height="26" as="geometry" />
        </mxCell>
        <mxCell id="-FB-TUwyzD8MLzmzIh0T-52" value="+ moveDragon()" style="text;align=left;verticalAlign=top;spacingLeft=4;spacingRight=4;overflow=hidden;rotatable=0;points=[[0,0.5],[1,0.5]];portConstraint=eastwest;" vertex="1" parent="-FB-TUwyzD8MLzmzIh0T-31">
          <mxGeometry y="502" width="342" height="26" as="geometry" />
        </mxCell>
        <mxCell id="-FB-TUwyzD8MLzmzIh0T-53" value="+ getDirectionExcept(d : Direction) : Direction" style="text;align=left;verticalAlign=top;spacingLeft=4;spacingRight=4;overflow=hidden;rotatable=0;points=[[0,0.5],[1,0.5]];portConstraint=eastwest;" vertex="1" parent="-FB-TUwyzD8MLzmzIh0T-31">
          <mxGeometry y="528" width="342" height="26" as="geometry" />
        </mxCell>
        <mxCell id="-FB-TUwyzD8MLzmzIh0T-54" value="+ draw(g : Graphics)" style="text;align=left;verticalAlign=top;spacingLeft=4;spacingRight=4;overflow=hidden;rotatable=0;points=[[0,0.5],[1,0.5]];portConstraint=eastwest;" vertex="1" parent="-FB-TUwyzD8MLzmzIh0T-31">
          <mxGeometry y="554" width="342" height="26" as="geometry" />
        </mxCell>
        <mxCell id="-FB-TUwyzD8MLzmzIh0T-55" value="+ getPlayerCenterX() : int" style="text;align=left;verticalAlign=top;spacingLeft=4;spacingRight=4;overflow=hidden;rotatable=0;points=[[0,0.5],[1,0.5]];portConstraint=eastwest;" vertex="1" parent="-FB-TUwyzD8MLzmzIh0T-31">
          <mxGeometry y="580" width="342" height="26" as="geometry" />
        </mxCell>
        <mxCell id="-FB-TUwyzD8MLzmzIh0T-56" value="+ getPlayerCenterY() : int" style="text;align=left;verticalAlign=top;spacingLeft=4;spacingRight=4;overflow=hidden;rotatable=0;points=[[0,0.5],[1,0.5]];portConstraint=eastwest;" vertex="1" parent="-FB-TUwyzD8MLzmzIh0T-31">
          <mxGeometry y="606" width="342" height="26" as="geometry" />
        </mxCell>
        <mxCell id="-FB-TUwyzD8MLzmzIh0T-57" value="+ getPlayerX() : int" style="text;align=left;verticalAlign=top;spacingLeft=4;spacingRight=4;overflow=hidden;rotatable=0;points=[[0,0.5],[1,0.5]];portConstraint=eastwest;" vertex="1" parent="-FB-TUwyzD8MLzmzIh0T-31">
          <mxGeometry y="632" width="342" height="26" as="geometry" />
        </mxCell>
        <mxCell id="-FB-TUwyzD8MLzmzIh0T-58" value="+ getPlayerY() : int" style="text;align=left;verticalAlign=top;spacingLeft=4;spacingRight=4;overflow=hidden;rotatable=0;points=[[0,0.5],[1,0.5]];portConstraint=eastwest;" vertex="1" parent="-FB-TUwyzD8MLzmzIh0T-31">
          <mxGeometry y="658" width="342" height="26" as="geometry" />
        </mxCell>
        <mxCell id="-FB-TUwyzD8MLzmzIh0T-59" value="+ isOver() : boolean" style="text;align=left;verticalAlign=top;spacingLeft=4;spacingRight=4;overflow=hidden;rotatable=0;points=[[0,0.5],[1,0.5]];portConstraint=eastwest;" vertex="1" parent="-FB-TUwyzD8MLzmzIh0T-31">
          <mxGeometry y="684" width="342" height="26" as="geometry" />
        </mxCell>
        <mxCell id="-FB-TUwyzD8MLzmzIh0T-60" value="+ isWon() : boolean" style="text;align=left;verticalAlign=top;spacingLeft=4;spacingRight=4;overflow=hidden;rotatable=0;points=[[0,0.5],[1,0.5]];portConstraint=eastwest;" vertex="1" parent="-FB-TUwyzD8MLzmzIh0T-31">
          <mxGeometry y="710" width="342" height="26" as="geometry" />
        </mxCell>
        <mxCell id="-FB-TUwyzD8MLzmzIh0T-61" value="GamePanel" style="swimlane;fontStyle=0;align=center;verticalAlign=top;childLayout=stackLayout;horizontal=1;startSize=26;horizontalStack=0;resizeParent=1;resizeLast=0;collapsible=1;marginBottom=0;rounded=0;shadow=0;strokeWidth=1;" vertex="1" parent="WIyWlLk6GJQsqaUBKTNV-1">
          <mxGeometry x="1260" y="130" width="342" height="736" as="geometry">
            <mxRectangle x="550" y="140" width="160" height="26" as="alternateBounds" />
          </mxGeometry>
        </mxCell>
        <mxCell id="-FB-TUwyzD8MLzmzIh0T-62" value="- board : Board" style="text;align=left;verticalAlign=top;spacingLeft=4;spacingRight=4;overflow=hidden;rotatable=0;points=[[0,0.5],[1,0.5]];portConstraint=eastwest;" vertex="1" parent="-FB-TUwyzD8MLzmzIh0T-61">
          <mxGeometry y="26" width="342" height="26" as="geometry" />
        </mxCell>
        <mxCell id="-FB-TUwyzD8MLzmzIh0T-63" value="- ENTITYSIZE : int" style="text;align=left;verticalAlign=top;spacingLeft=4;spacingRight=4;overflow=hidden;rotatable=0;points=[[0,0.5],[1,0.5]];portConstraint=eastwest;" vertex="1" parent="-FB-TUwyzD8MLzmzIh0T-61">
          <mxGeometry y="52" width="342" height="26" as="geometry" />
        </mxCell>
        <mxCell id="-FB-TUwyzD8MLzmzIh0T-64" value="- BOARDSIZE : int" style="text;align=left;verticalAlign=top;spacingLeft=4;spacingRight=4;overflow=hidden;rotatable=0;points=[[0,0.5],[1,0.5]];portConstraint=eastwest;" vertex="1" parent="-FB-TUwyzD8MLzmzIh0T-61">
          <mxGeometry y="78" width="342" height="26" as="geometry" />
        </mxCell>
        <mxCell id="-FB-TUwyzD8MLzmzIh0T-65" value="- levelNumber : int" style="text;align=left;verticalAlign=top;spacingLeft=4;spacingRight=4;overflow=hidden;rotatable=0;points=[[0,0.5],[1,0.5]];portConstraint=eastwest;" vertex="1" parent="-FB-TUwyzD8MLzmzIh0T-61">
          <mxGeometry y="104" width="342" height="26" as="geometry" />
        </mxCell>
        <mxCell id="-FB-TUwyzD8MLzmzIh0T-66" value="- moveTimer : Timer" style="text;align=left;verticalAlign=top;spacingLeft=4;spacingRight=4;overflow=hidden;rotatable=0;points=[[0,0.5],[1,0.5]];portConstraint=eastwest;" vertex="1" parent="-FB-TUwyzD8MLzmzIh0T-61">
          <mxGeometry y="130" width="342" height="26" as="geometry" />
        </mxCell>
        <mxCell id="-FB-TUwyzD8MLzmzIh0T-67" value="- elapsedTimer : Timer" style="text;align=left;verticalAlign=top;spacingLeft=4;spacingRight=4;overflow=hidden;rotatable=0;points=[[0,0.5],[1,0.5]];portConstraint=eastwest;" vertex="1" parent="-FB-TUwyzD8MLzmzIh0T-61">
          <mxGeometry y="156" width="342" height="26" as="geometry" />
        </mxCell>
        <mxCell id="-FB-TUwyzD8MLzmzIh0T-68" value="- background : Image" style="text;align=left;verticalAlign=top;spacingLeft=4;spacingRight=4;overflow=hidden;rotatable=0;points=[[0,0.5],[1,0.5]];portConstraint=eastwest;" vertex="1" parent="-FB-TUwyzD8MLzmzIh0T-61">
          <mxGeometry y="182" width="342" height="26" as="geometry" />
        </mxCell>
        <mxCell id="-FB-TUwyzD8MLzmzIh0T-69" value="- isLeftPressed :boolean" style="text;align=left;verticalAlign=top;spacingLeft=4;spacingRight=4;overflow=hidden;rotatable=0;points=[[0,0.5],[1,0.5]];portConstraint=eastwest;" vertex="1" parent="-FB-TUwyzD8MLzmzIh0T-61">
          <mxGeometry y="208" width="342" height="26" as="geometry" />
        </mxCell>
        <mxCell id="-FB-TUwyzD8MLzmzIh0T-70" value="- isRightPressed : boolean" style="text;align=left;verticalAlign=top;spacingLeft=4;spacingRight=4;overflow=hidden;rotatable=0;points=[[0,0.5],[1,0.5]];portConstraint=eastwest;" vertex="1" parent="-FB-TUwyzD8MLzmzIh0T-61">
          <mxGeometry y="234" width="342" height="26" as="geometry" />
        </mxCell>
        <mxCell id="-FB-TUwyzD8MLzmzIh0T-71" value="- isUpPressed : boolean" style="text;align=left;verticalAlign=top;spacingLeft=4;spacingRight=4;overflow=hidden;rotatable=0;points=[[0,0.5],[1,0.5]];portConstraint=eastwest;" vertex="1" parent="-FB-TUwyzD8MLzmzIh0T-61">
          <mxGeometry y="260" width="342" height="26" as="geometry" />
        </mxCell>
        <mxCell id="-FB-TUwyzD8MLzmzIh0T-72" value="- isDownPressed : boolean" style="text;align=left;verticalAlign=top;spacingLeft=4;spacingRight=4;overflow=hidden;rotatable=0;points=[[0,0.5],[1,0.5]];portConstraint=eastwest;" vertex="1" parent="-FB-TUwyzD8MLzmzIh0T-61">
          <mxGeometry y="286" width="342" height="26" as="geometry" />
        </mxCell>
        <mxCell id="-FB-TUwyzD8MLzmzIh0T-73" value="- dark : boolean" style="text;align=left;verticalAlign=top;spacingLeft=4;spacingRight=4;overflow=hidden;rotatable=0;points=[[0,0.5],[1,0.5]];portConstraint=eastwest;" vertex="1" parent="-FB-TUwyzD8MLzmzIh0T-61">
          <mxGeometry y="312" width="342" height="26" as="geometry" />
        </mxCell>
        <mxCell id="-FB-TUwyzD8MLzmzIh0T-74" value="- paused : boolean" style="text;align=left;verticalAlign=top;spacingLeft=4;spacingRight=4;overflow=hidden;rotatable=0;points=[[0,0.5],[1,0.5]];portConstraint=eastwest;" vertex="1" parent="-FB-TUwyzD8MLzmzIh0T-61">
          <mxGeometry y="338" width="342" height="26" as="geometry" />
        </mxCell>
        <mxCell id="-FB-TUwyzD8MLzmzIh0T-75" value="- elapsedTime : int" style="text;align=left;verticalAlign=top;spacingLeft=4;spacingRight=4;overflow=hidden;rotatable=0;points=[[0,0.5],[1,0.5]];portConstraint=eastwest;" vertex="1" parent="-FB-TUwyzD8MLzmzIh0T-61">
          <mxGeometry y="364" width="342" height="26" as="geometry" />
        </mxCell>
        <mxCell id="-FB-TUwyzD8MLzmzIh0T-76" value="- highScores : HighScores" style="text;align=left;verticalAlign=top;spacingLeft=4;spacingRight=4;overflow=hidden;rotatable=0;points=[[0,0.5],[1,0.5]];portConstraint=eastwest;" vertex="1" parent="-FB-TUwyzD8MLzmzIh0T-61">
          <mxGeometry y="390" width="342" height="26" as="geometry" />
        </mxCell>
        <mxCell id="-FB-TUwyzD8MLzmzIh0T-77" value="" style="line;html=1;strokeWidth=1;align=left;verticalAlign=middle;spacingTop=-1;spacingLeft=3;spacingRight=3;rotatable=0;labelPosition=right;points=[];portConstraint=eastwest;" vertex="1" parent="-FB-TUwyzD8MLzmzIh0T-61">
          <mxGeometry y="416" width="342" height="8" as="geometry" />
        </mxCell>
        <mxCell id="-FB-TUwyzD8MLzmzIh0T-78" value="+ GamePanel()" style="text;align=left;verticalAlign=top;spacingLeft=4;spacingRight=4;overflow=hidden;rotatable=0;points=[[0,0.5],[1,0.5]];portConstraint=eastwest;" vertex="1" parent="-FB-TUwyzD8MLzmzIh0T-61">
          <mxGeometry y="424" width="342" height="26" as="geometry" />
        </mxCell>
        <mxCell id="-FB-TUwyzD8MLzmzIh0T-79" value="+ paintComponent(g : Graphics)" style="text;align=left;verticalAlign=top;spacingLeft=4;spacingRight=4;overflow=hidden;rotatable=0;points=[[0,0.5],[1,0.5]];portConstraint=eastwest;" vertex="1" parent="-FB-TUwyzD8MLzmzIh0T-61">
          <mxGeometry y="450" width="342" height="26" as="geometry" />
        </mxCell>
        <mxCell id="-FB-TUwyzD8MLzmzIh0T-80" value="+ restart()" style="text;align=left;verticalAlign=top;spacingLeft=4;spacingRight=4;overflow=hidden;rotatable=0;points=[[0,0.5],[1,0.5]];portConstraint=eastwest;" vertex="1" parent="-FB-TUwyzD8MLzmzIh0T-61">
          <mxGeometry y="476" width="342" height="26" as="geometry" />
        </mxCell>
        <mxCell id="-FB-TUwyzD8MLzmzIh0T-81" value="+ setDark()" style="text;align=left;verticalAlign=top;spacingLeft=4;spacingRight=4;overflow=hidden;rotatable=0;points=[[0,0.5],[1,0.5]];portConstraint=eastwest;" vertex="1" parent="-FB-TUwyzD8MLzmzIh0T-61">
          <mxGeometry y="502" width="342" height="26" as="geometry" />
        </mxCell>
        <mxCell id="-FB-TUwyzD8MLzmzIh0T-82" value="+ setPaused(b : boolean)" style="text;align=left;verticalAlign=top;spacingLeft=4;spacingRight=4;overflow=hidden;rotatable=0;points=[[0,0.5],[1,0.5]];portConstraint=eastwest;" vertex="1" parent="-FB-TUwyzD8MLzmzIh0T-61">
          <mxGeometry y="528" width="342" height="26" as="geometry" />
        </mxCell>
        <mxCell id="-FB-TUwyzD8MLzmzIh0T-83" value="+ getLeaderBoard() : HighScores" style="text;align=left;verticalAlign=top;spacingLeft=4;spacingRight=4;overflow=hidden;rotatable=0;points=[[0,0.5],[1,0.5]];portConstraint=eastwest;" vertex="1" parent="-FB-TUwyzD8MLzmzIh0T-61">
          <mxGeometry y="554" width="342" height="26" as="geometry" />
        </mxCell>
        <mxCell id="-FB-TUwyzD8MLzmzIh0T-84" value="+ getPlayerCenterX() : int" style="text;align=left;verticalAlign=top;spacingLeft=4;spacingRight=4;overflow=hidden;rotatable=0;points=[[0,0.5],[1,0.5]];portConstraint=eastwest;" vertex="1" parent="-FB-TUwyzD8MLzmzIh0T-61">
          <mxGeometry y="580" width="342" height="26" as="geometry" />
        </mxCell>
        <mxCell id="-FB-TUwyzD8MLzmzIh0T-85" value="+ getPlayerCenterY() : int" style="text;align=left;verticalAlign=top;spacingLeft=4;spacingRight=4;overflow=hidden;rotatable=0;points=[[0,0.5],[1,0.5]];portConstraint=eastwest;" vertex="1" parent="-FB-TUwyzD8MLzmzIh0T-61">
          <mxGeometry y="606" width="342" height="26" as="geometry" />
        </mxCell>
        <mxCell id="-FB-TUwyzD8MLzmzIh0T-86" value="+ getPlayerX() : int" style="text;align=left;verticalAlign=top;spacingLeft=4;spacingRight=4;overflow=hidden;rotatable=0;points=[[0,0.5],[1,0.5]];portConstraint=eastwest;" vertex="1" parent="-FB-TUwyzD8MLzmzIh0T-61">
          <mxGeometry y="632" width="342" height="26" as="geometry" />
        </mxCell>
        <mxCell id="-FB-TUwyzD8MLzmzIh0T-87" value="+ getPlayerY() : int" style="text;align=left;verticalAlign=top;spacingLeft=4;spacingRight=4;overflow=hidden;rotatable=0;points=[[0,0.5],[1,0.5]];portConstraint=eastwest;" vertex="1" parent="-FB-TUwyzD8MLzmzIh0T-61">
          <mxGeometry y="658" width="342" height="26" as="geometry" />
        </mxCell>
        <mxCell id="-FB-TUwyzD8MLzmzIh0T-88" value="+ isOver() : boolean" style="text;align=left;verticalAlign=top;spacingLeft=4;spacingRight=4;overflow=hidden;rotatable=0;points=[[0,0.5],[1,0.5]];portConstraint=eastwest;" vertex="1" parent="-FB-TUwyzD8MLzmzIh0T-61">
          <mxGeometry y="684" width="342" height="26" as="geometry" />
        </mxCell>
        <mxCell id="-FB-TUwyzD8MLzmzIh0T-89" value="+ isWon() : boolean" style="text;align=left;verticalAlign=top;spacingLeft=4;spacingRight=4;overflow=hidden;rotatable=0;points=[[0,0.5],[1,0.5]];portConstraint=eastwest;" vertex="1" parent="-FB-TUwyzD8MLzmzIh0T-61">
          <mxGeometry y="710" width="342" height="26" as="geometry" />
        </mxCell>
        <mxCell id="-FB-TUwyzD8MLzmzIh0T-90" value="Direction" style="swimlane;fontStyle=0;align=center;verticalAlign=top;childLayout=stackLayout;horizontal=1;startSize=26;horizontalStack=0;resizeParent=1;resizeLast=0;collapsible=1;marginBottom=0;rounded=0;shadow=0;strokeWidth=1;" vertex="1" parent="WIyWlLk6GJQsqaUBKTNV-1">
          <mxGeometry x="740" y="-30" width="342" height="60" as="geometry">
            <mxRectangle x="550" y="140" width="160" height="26" as="alternateBounds" />
          </mxGeometry>
        </mxCell>
        <mxCell id="-FB-TUwyzD8MLzmzIh0T-93" value="" style="line;html=1;strokeWidth=1;align=left;verticalAlign=middle;spacingTop=-1;spacingLeft=3;spacingRight=3;rotatable=0;labelPosition=right;points=[];portConstraint=eastwest;" vertex="1" parent="-FB-TUwyzD8MLzmzIh0T-90">
          <mxGeometry y="26" width="342" height="8" as="geometry" />
        </mxCell>
        <mxCell id="-FB-TUwyzD8MLzmzIh0T-91" value="UP, DOWN, RIGHT, LEFT" style="text;align=left;verticalAlign=top;spacingLeft=4;spacingRight=4;overflow=hidden;rotatable=0;points=[[0,0.5],[1,0.5]];portConstraint=eastwest;" vertex="1" parent="-FB-TUwyzD8MLzmzIh0T-90">
          <mxGeometry y="34" width="342" height="26" as="geometry" />
        </mxCell>
        <mxCell id="-FB-TUwyzD8MLzmzIh0T-96" value="LabyrinthGUI" style="swimlane;fontStyle=0;align=center;verticalAlign=top;childLayout=stackLayout;horizontal=1;startSize=26;horizontalStack=0;resizeParent=1;resizeLast=0;collapsible=1;marginBottom=0;rounded=0;shadow=0;strokeWidth=1;" vertex="1" parent="WIyWlLk6GJQsqaUBKTNV-1">
          <mxGeometry x="1260" y="-70" width="342" height="112" as="geometry">
            <mxRectangle x="550" y="140" width="160" height="26" as="alternateBounds" />
          </mxGeometry>
        </mxCell>
        <mxCell id="-FB-TUwyzD8MLzmzIh0T-97" value="- frame : JFrame" style="text;align=left;verticalAlign=top;spacingLeft=4;spacingRight=4;overflow=hidden;rotatable=0;points=[[0,0.5],[1,0.5]];portConstraint=eastwest;" vertex="1" parent="-FB-TUwyzD8MLzmzIh0T-96">
          <mxGeometry y="26" width="342" height="26" as="geometry" />
        </mxCell>
        <mxCell id="-FB-TUwyzD8MLzmzIh0T-98" value="- gamePanel : GamePanel" style="text;align=left;verticalAlign=top;spacingLeft=4;spacingRight=4;overflow=hidden;rotatable=0;points=[[0,0.5],[1,0.5]];portConstraint=eastwest;" vertex="1" parent="-FB-TUwyzD8MLzmzIh0T-96">
          <mxGeometry y="52" width="342" height="26" as="geometry" />
        </mxCell>
        <mxCell id="-FB-TUwyzD8MLzmzIh0T-99" value="" style="line;html=1;strokeWidth=1;align=left;verticalAlign=middle;spacingTop=-1;spacingLeft=3;spacingRight=3;rotatable=0;labelPosition=right;points=[];portConstraint=eastwest;" vertex="1" parent="-FB-TUwyzD8MLzmzIh0T-96">
          <mxGeometry y="78" width="342" height="8" as="geometry" />
        </mxCell>
        <mxCell id="-FB-TUwyzD8MLzmzIh0T-100" value="+ LabirintGUI()" style="text;align=left;verticalAlign=top;spacingLeft=4;spacingRight=4;overflow=hidden;rotatable=0;points=[[0,0.5],[1,0.5]];portConstraint=eastwest;" vertex="1" parent="-FB-TUwyzD8MLzmzIh0T-96">
          <mxGeometry y="86" width="342" height="26" as="geometry" />
        </mxCell>
        <mxCell id="zkfFHV4jXpPFQw0GAbJ--17" value="Player" style="swimlane;fontStyle=0;align=center;verticalAlign=top;childLayout=stackLayout;horizontal=1;startSize=26;horizontalStack=0;resizeParent=1;resizeLast=0;collapsible=1;marginBottom=0;rounded=0;shadow=0;strokeWidth=1;" parent="WIyWlLk6GJQsqaUBKTNV-1" vertex="1">
          <mxGeometry x="1130" y="960" width="260" height="138" as="geometry">
            <mxRectangle x="550" y="140" width="160" height="26" as="alternateBounds" />
          </mxGeometry>
        </mxCell>
        <mxCell id="zkfFHV4jXpPFQw0GAbJ--18" value="- velX : int" style="text;align=left;verticalAlign=top;spacingLeft=4;spacingRight=4;overflow=hidden;rotatable=0;points=[[0,0.5],[1,0.5]];portConstraint=eastwest;" parent="zkfFHV4jXpPFQw0GAbJ--17" vertex="1">
          <mxGeometry y="26" width="260" height="26" as="geometry" />
        </mxCell>
        <mxCell id="-FB-TUwyzD8MLzmzIh0T-16" value="- velY : int" style="text;align=left;verticalAlign=top;spacingLeft=4;spacingRight=4;overflow=hidden;rotatable=0;points=[[0,0.5],[1,0.5]];portConstraint=eastwest;" vertex="1" parent="zkfFHV4jXpPFQw0GAbJ--17">
          <mxGeometry y="52" width="260" height="26" as="geometry" />
        </mxCell>
        <mxCell id="zkfFHV4jXpPFQw0GAbJ--23" value="" style="line;html=1;strokeWidth=1;align=left;verticalAlign=middle;spacingTop=-1;spacingLeft=3;spacingRight=3;rotatable=0;labelPosition=right;points=[];portConstraint=eastwest;" parent="zkfFHV4jXpPFQw0GAbJ--17" vertex="1">
          <mxGeometry y="78" width="260" height="8" as="geometry" />
        </mxCell>
        <mxCell id="-FB-TUwyzD8MLzmzIh0T-17" value="+ Player(x : int, y : int, w : int, h : int, i : Image, vX : int, vY : int)" style="text;align=left;verticalAlign=top;spacingLeft=4;spacingRight=4;overflow=hidden;rotatable=0;points=[[0,0.5],[1,0.5]];portConstraint=eastwest;" vertex="1" parent="zkfFHV4jXpPFQw0GAbJ--17">
          <mxGeometry y="86" width="260" height="26" as="geometry" />
        </mxCell>
        <mxCell id="-FB-TUwyzD8MLzmzIh0T-18" value="+ move(d : Direction)" style="text;align=left;verticalAlign=top;spacingLeft=4;spacingRight=4;overflow=hidden;rotatable=0;points=[[0,0.5],[1,0.5]];portConstraint=eastwest;" vertex="1" parent="zkfFHV4jXpPFQw0GAbJ--17">
          <mxGeometry y="112" width="260" height="26" as="geometry" />
        </mxCell>
        <mxCell id="-FB-TUwyzD8MLzmzIh0T-102" value="" style="endArrow=diamondThin;endFill=1;endSize=24;html=1;rounded=0;entryX=0;entryY=0.5;entryDx=0;entryDy=0;exitX=1;exitY=0.5;exitDx=0;exitDy=0;" edge="1" parent="WIyWlLk6GJQsqaUBKTNV-1" source="-FB-TUwyzD8MLzmzIh0T-46" target="-FB-TUwyzD8MLzmzIh0T-72">
          <mxGeometry width="160" relative="1" as="geometry">
            <mxPoint x="1090" y="430" as="sourcePoint" />
            <mxPoint x="1250" y="430" as="targetPoint" />
          </mxGeometry>
        </mxCell>
        <mxCell id="-FB-TUwyzD8MLzmzIh0T-103" value="" style="endArrow=diamondThin;endFill=1;endSize=24;html=1;rounded=0;entryX=0.249;entryY=0.987;entryDx=0;entryDy=0;exitX=0.25;exitY=0;exitDx=0;exitDy=0;entryPerimeter=0;" edge="1" parent="WIyWlLk6GJQsqaUBKTNV-1" source="-FB-TUwyzD8MLzmzIh0T-61" target="-FB-TUwyzD8MLzmzIh0T-100">
          <mxGeometry width="160" relative="1" as="geometry">
            <mxPoint x="1070" y="90" as="sourcePoint" />
            <mxPoint x="1230" y="90" as="targetPoint" />
          </mxGeometry>
        </mxCell>
        <mxCell id="-FB-TUwyzD8MLzmzIh0T-104" value="" style="endArrow=diamondThin;endFill=1;endSize=24;html=1;rounded=0;entryX=0.186;entryY=1.077;entryDx=0;entryDy=0;entryPerimeter=0;exitX=0.25;exitY=0;exitDx=0;exitDy=0;" edge="1" parent="WIyWlLk6GJQsqaUBKTNV-1" source="zkfFHV4jXpPFQw0GAbJ--0" target="-FB-TUwyzD8MLzmzIh0T-60">
          <mxGeometry width="160" relative="1" as="geometry">
            <mxPoint x="760" y="920" as="sourcePoint" />
            <mxPoint x="920" y="920" as="targetPoint" />
          </mxGeometry>
        </mxCell>
        <mxCell id="-FB-TUwyzD8MLzmzIh0T-106" value="&lt;font style=&quot;font-size: 13px;&quot;&gt;*&lt;/font&gt;" style="edgeLabel;html=1;align=center;verticalAlign=middle;resizable=0;points=[];" vertex="1" connectable="0" parent="-FB-TUwyzD8MLzmzIh0T-104">
          <mxGeometry x="0.1251" y="-2" relative="1" as="geometry">
            <mxPoint x="4" y="42" as="offset" />
          </mxGeometry>
        </mxCell>
        <mxCell id="-FB-TUwyzD8MLzmzIh0T-107" value="" style="endArrow=diamondThin;endFill=1;endSize=24;html=1;rounded=0;entryX=0.389;entryY=-0.006;entryDx=0;entryDy=0;entryPerimeter=0;exitX=0.389;exitY=1.043;exitDx=0;exitDy=0;exitPerimeter=0;" edge="1" parent="WIyWlLk6GJQsqaUBKTNV-1" source="-FB-TUwyzD8MLzmzIh0T-91" target="-FB-TUwyzD8MLzmzIh0T-31">
          <mxGeometry width="160" relative="1" as="geometry">
            <mxPoint x="320" y="260" as="sourcePoint" />
            <mxPoint x="480" y="260" as="targetPoint" />
          </mxGeometry>
        </mxCell>
        <mxCell id="-FB-TUwyzD8MLzmzIh0T-108" value="&lt;font style=&quot;font-size: 13px;&quot;&gt;*&lt;/font&gt;" style="edgeLabel;html=1;align=center;verticalAlign=middle;resizable=0;points=[];" vertex="1" connectable="0" parent="-FB-TUwyzD8MLzmzIh0T-107">
          <mxGeometry x="-0.3313" y="-1" relative="1" as="geometry">
            <mxPoint x="-12" y="-21" as="offset" />
          </mxGeometry>
        </mxCell>
        <mxCell id="-FB-TUwyzD8MLzmzIh0T-109" value="" style="endArrow=block;endSize=16;endFill=0;html=1;rounded=0;entryX=1.002;entryY=-0.009;entryDx=0;entryDy=0;entryPerimeter=0;exitX=0;exitY=0.5;exitDx=0;exitDy=0;" edge="1" parent="WIyWlLk6GJQsqaUBKTNV-1" source="-FB-TUwyzD8MLzmzIh0T-20" target="-FB-TUwyzD8MLzmzIh0T-6">
          <mxGeometry width="160" relative="1" as="geometry">
            <mxPoint x="1070" y="1480" as="sourcePoint" />
            <mxPoint x="1230" y="1480" as="targetPoint" />
          </mxGeometry>
        </mxCell>
        <mxCell id="-FB-TUwyzD8MLzmzIh0T-110" value="" style="endArrow=none;html=1;rounded=0;entryX=0;entryY=0.5;entryDx=0;entryDy=0;exitX=0.003;exitY=-0.244;exitDx=0;exitDy=0;exitPerimeter=0;" edge="1" parent="WIyWlLk6GJQsqaUBKTNV-1" source="-FB-TUwyzD8MLzmzIh0T-17" target="-FB-TUwyzD8MLzmzIh0T-25">
          <mxGeometry width="50" height="50" relative="1" as="geometry">
            <mxPoint x="1080" y="1021" as="sourcePoint" />
            <mxPoint x="1080" y="1340" as="targetPoint" />
            <Array as="points">
              <mxPoint x="1080" y="1040" />
              <mxPoint x="1080" y="1350" />
            </Array>
          </mxGeometry>
        </mxCell>
        <mxCell id="-FB-TUwyzD8MLzmzIh0T-111" value="HighScore" style="swimlane;fontStyle=0;align=center;verticalAlign=top;childLayout=stackLayout;horizontal=1;startSize=26;horizontalStack=0;resizeParent=1;resizeLast=0;collapsible=1;marginBottom=0;rounded=0;shadow=0;strokeWidth=1;" vertex="1" parent="WIyWlLk6GJQsqaUBKTNV-1">
          <mxGeometry x="1680" y="503" width="260" height="164" as="geometry">
            <mxRectangle x="550" y="140" width="160" height="26" as="alternateBounds" />
          </mxGeometry>
        </mxCell>
        <mxCell id="-FB-TUwyzD8MLzmzIh0T-112" value="- name : String" style="text;align=left;verticalAlign=top;spacingLeft=4;spacingRight=4;overflow=hidden;rotatable=0;points=[[0,0.5],[1,0.5]];portConstraint=eastwest;" vertex="1" parent="-FB-TUwyzD8MLzmzIh0T-111">
          <mxGeometry y="26" width="260" height="26" as="geometry" />
        </mxCell>
        <mxCell id="-FB-TUwyzD8MLzmzIh0T-113" value="- score : int" style="text;align=left;verticalAlign=top;spacingLeft=4;spacingRight=4;overflow=hidden;rotatable=0;points=[[0,0.5],[1,0.5]];portConstraint=eastwest;" vertex="1" parent="-FB-TUwyzD8MLzmzIh0T-111">
          <mxGeometry y="52" width="260" height="26" as="geometry" />
        </mxCell>
        <mxCell id="-FB-TUwyzD8MLzmzIh0T-114" value="" style="line;html=1;strokeWidth=1;align=left;verticalAlign=middle;spacingTop=-1;spacingLeft=3;spacingRight=3;rotatable=0;labelPosition=right;points=[];portConstraint=eastwest;" vertex="1" parent="-FB-TUwyzD8MLzmzIh0T-111">
          <mxGeometry y="78" width="260" height="8" as="geometry" />
        </mxCell>
        <mxCell id="-FB-TUwyzD8MLzmzIh0T-115" value="+ HighScore(n : String, s : int)" style="text;align=left;verticalAlign=top;spacingLeft=4;spacingRight=4;overflow=hidden;rotatable=0;points=[[0,0.5],[1,0.5]];portConstraint=eastwest;" vertex="1" parent="-FB-TUwyzD8MLzmzIh0T-111">
          <mxGeometry y="86" width="260" height="26" as="geometry" />
        </mxCell>
        <mxCell id="-FB-TUwyzD8MLzmzIh0T-116" value="+ getName() : String" style="text;align=left;verticalAlign=top;spacingLeft=4;spacingRight=4;overflow=hidden;rotatable=0;points=[[0,0.5],[1,0.5]];portConstraint=eastwest;" vertex="1" parent="-FB-TUwyzD8MLzmzIh0T-111">
          <mxGeometry y="112" width="260" height="26" as="geometry" />
        </mxCell>
        <mxCell id="-FB-TUwyzD8MLzmzIh0T-117" value="+ getScore() : int" style="text;align=left;verticalAlign=top;spacingLeft=4;spacingRight=4;overflow=hidden;rotatable=0;points=[[0,0.5],[1,0.5]];portConstraint=eastwest;" vertex="1" parent="-FB-TUwyzD8MLzmzIh0T-111">
          <mxGeometry y="138" width="260" height="26" as="geometry" />
        </mxCell>
        <mxCell id="-FB-TUwyzD8MLzmzIh0T-118" value="HighScores" style="swimlane;fontStyle=0;align=center;verticalAlign=top;childLayout=stackLayout;horizontal=1;startSize=26;horizontalStack=0;resizeParent=1;resizeLast=0;collapsible=1;marginBottom=0;rounded=0;shadow=0;strokeWidth=1;" vertex="1" parent="WIyWlLk6GJQsqaUBKTNV-1">
          <mxGeometry x="1680" y="130" width="260" height="294" as="geometry">
            <mxRectangle x="550" y="140" width="160" height="26" as="alternateBounds" />
          </mxGeometry>
        </mxCell>
        <mxCell id="-FB-TUwyzD8MLzmzIh0T-119" value="- maxScores : int" style="text;align=left;verticalAlign=top;spacingLeft=4;spacingRight=4;overflow=hidden;rotatable=0;points=[[0,0.5],[1,0.5]];portConstraint=eastwest;" vertex="1" parent="-FB-TUwyzD8MLzmzIh0T-118">
          <mxGeometry y="26" width="260" height="26" as="geometry" />
        </mxCell>
        <mxCell id="-FB-TUwyzD8MLzmzIh0T-120" value="- insertStatement : PreparedStatement" style="text;align=left;verticalAlign=top;spacingLeft=4;spacingRight=4;overflow=hidden;rotatable=0;points=[[0,0.5],[1,0.5]];portConstraint=eastwest;" vertex="1" parent="-FB-TUwyzD8MLzmzIh0T-118">
          <mxGeometry y="52" width="260" height="26" as="geometry" />
        </mxCell>
        <mxCell id="-FB-TUwyzD8MLzmzIh0T-125" value="- deleteStatement : PreparedStatement" style="text;align=left;verticalAlign=top;spacingLeft=4;spacingRight=4;overflow=hidden;rotatable=0;points=[[0,0.5],[1,0.5]];portConstraint=eastwest;" vertex="1" parent="-FB-TUwyzD8MLzmzIh0T-118">
          <mxGeometry y="78" width="260" height="26" as="geometry" />
        </mxCell>
        <mxCell id="-FB-TUwyzD8MLzmzIh0T-123" value="- connection : Connection" style="text;align=left;verticalAlign=top;spacingLeft=4;spacingRight=4;overflow=hidden;rotatable=0;points=[[0,0.5],[1,0.5]];portConstraint=eastwest;" vertex="1" parent="-FB-TUwyzD8MLzmzIh0T-118">
          <mxGeometry y="104" width="260" height="26" as="geometry" />
        </mxCell>
        <mxCell id="-FB-TUwyzD8MLzmzIh0T-121" value="" style="line;html=1;strokeWidth=1;align=left;verticalAlign=middle;spacingTop=-1;spacingLeft=3;spacingRight=3;rotatable=0;labelPosition=right;points=[];portConstraint=eastwest;" vertex="1" parent="-FB-TUwyzD8MLzmzIh0T-118">
          <mxGeometry y="130" width="260" height="8" as="geometry" />
        </mxCell>
        <mxCell id="-FB-TUwyzD8MLzmzIh0T-122" value="+ HighScores(maxScores : int)" style="text;align=left;verticalAlign=top;spacingLeft=4;spacingRight=4;overflow=hidden;rotatable=0;points=[[0,0.5],[1,0.5]];portConstraint=eastwest;" vertex="1" parent="-FB-TUwyzD8MLzmzIh0T-118">
          <mxGeometry y="138" width="260" height="26" as="geometry" />
        </mxCell>
        <mxCell id="-FB-TUwyzD8MLzmzIh0T-124" value="+ getHighScores() : ArrayList&lt;HighScore&gt;" style="text;align=left;verticalAlign=top;spacingLeft=4;spacingRight=4;overflow=hidden;rotatable=0;points=[[0,0.5],[1,0.5]];portConstraint=eastwest;" vertex="1" parent="-FB-TUwyzD8MLzmzIh0T-118">
          <mxGeometry y="164" width="260" height="26" as="geometry" />
        </mxCell>
        <mxCell id="-FB-TUwyzD8MLzmzIh0T-126" value="+ putHighScore(n : String, s : int)" style="text;align=left;verticalAlign=top;spacingLeft=4;spacingRight=4;overflow=hidden;rotatable=0;points=[[0,0.5],[1,0.5]];portConstraint=eastwest;" vertex="1" parent="-FB-TUwyzD8MLzmzIh0T-118">
          <mxGeometry y="190" width="260" height="26" as="geometry" />
        </mxCell>
        <mxCell id="-FB-TUwyzD8MLzmzIh0T-127" value="- sortHighScores(h : ArrayList&lt;HighScore&gt;)" style="text;align=left;verticalAlign=top;spacingLeft=4;spacingRight=4;overflow=hidden;rotatable=0;points=[[0,0.5],[1,0.5]];portConstraint=eastwest;" vertex="1" parent="-FB-TUwyzD8MLzmzIh0T-118">
          <mxGeometry y="216" width="260" height="26" as="geometry" />
        </mxCell>
        <mxCell id="-FB-TUwyzD8MLzmzIh0T-128" value="- insertScore(n : String, s : int)" style="text;align=left;verticalAlign=top;spacingLeft=4;spacingRight=4;overflow=hidden;rotatable=0;points=[[0,0.5],[1,0.5]];portConstraint=eastwest;" vertex="1" parent="-FB-TUwyzD8MLzmzIh0T-118">
          <mxGeometry y="242" width="260" height="26" as="geometry" />
        </mxCell>
        <mxCell id="-FB-TUwyzD8MLzmzIh0T-129" value="- deleteScores(s : int)" style="text;align=left;verticalAlign=top;spacingLeft=4;spacingRight=4;overflow=hidden;rotatable=0;points=[[0,0.5],[1,0.5]];portConstraint=eastwest;" vertex="1" parent="-FB-TUwyzD8MLzmzIh0T-118">
          <mxGeometry y="268" width="260" height="26" as="geometry" />
        </mxCell>
        <mxCell id="-FB-TUwyzD8MLzmzIh0T-130" value="" style="endArrow=diamondThin;endFill=1;endSize=24;html=1;rounded=0;entryX=1;entryY=0.5;entryDx=0;entryDy=0;exitX=0;exitY=0.5;exitDx=0;exitDy=0;" edge="1" parent="WIyWlLk6GJQsqaUBKTNV-1" source="-FB-TUwyzD8MLzmzIh0T-124" target="-FB-TUwyzD8MLzmzIh0T-67">
          <mxGeometry width="160" relative="1" as="geometry">
            <mxPoint x="1620" y="440" as="sourcePoint" />
            <mxPoint x="1780" y="440" as="targetPoint" />
          </mxGeometry>
        </mxCell>
        <mxCell id="-FB-TUwyzD8MLzmzIh0T-132" value="" style="endArrow=diamondThin;endFill=1;endSize=24;html=1;rounded=0;entryX=0.332;entryY=1.017;entryDx=0;entryDy=0;entryPerimeter=0;exitX=0.329;exitY=0.006;exitDx=0;exitDy=0;exitPerimeter=0;" edge="1" parent="WIyWlLk6GJQsqaUBKTNV-1">
          <mxGeometry width="160" relative="1" as="geometry">
            <mxPoint x="1770" y="503.0039999999999" as="sourcePoint" />
            <mxPoint x="1770.7800000000002" y="423.462" as="targetPoint" />
          </mxGeometry>
        </mxCell>
        <mxCell id="-FB-TUwyzD8MLzmzIh0T-133" value="&lt;font style=&quot;font-size: 13px;&quot;&gt;*&lt;/font&gt;" style="edgeLabel;html=1;align=center;verticalAlign=middle;resizable=0;points=[];" vertex="1" connectable="0" parent="-FB-TUwyzD8MLzmzIh0T-132">
          <mxGeometry x="-0.087" y="1" relative="1" as="geometry">
            <mxPoint x="-5" y="27" as="offset" />
          </mxGeometry>
        </mxCell>
        <mxCell id="-FB-TUwyzD8MLzmzIh0T-134" value="" style="endArrow=diamondThin;endFill=1;endSize=24;html=1;rounded=0;entryX=0.917;entryY=1.254;entryDx=0;entryDy=0;entryPerimeter=0;exitX=-0.002;exitY=-0.23;exitDx=0;exitDy=0;exitPerimeter=0;" edge="1" parent="WIyWlLk6GJQsqaUBKTNV-1" source="zkfFHV4jXpPFQw0GAbJ--18">
          <mxGeometry width="160" relative="1" as="geometry">
            <mxPoint x="1070.39" y="993.4" as="sourcePoint" />
            <mxPoint x="1070.0040000000001" y="866.0039999999998" as="targetPoint" />
            <Array as="points">
              <mxPoint x="1070" y="980" />
            </Array>
          </mxGeometry>
        </mxCell>
        <mxCell id="-FB-TUwyzD8MLzmzIh0T-135" value="" style="endArrow=diamondThin;endFill=1;endSize=24;html=1;rounded=0;entryX=0.879;entryY=1.043;entryDx=0;entryDy=0;entryPerimeter=0;exitX=0;exitY=0;exitDx=0;exitDy=0;" edge="1" parent="WIyWlLk6GJQsqaUBKTNV-1" source="-FB-TUwyzD8MLzmzIh0T-19" target="-FB-TUwyzD8MLzmzIh0T-60">
          <mxGeometry width="160" relative="1" as="geometry">
            <mxPoint x="1039" y="1150" as="sourcePoint" />
            <mxPoint x="1100" y="1130" as="targetPoint" />
            <Array as="points">
              <mxPoint x="1040" y="1140" />
            </Array>
          </mxGeometry>
        </mxCell>
      </root>
    </mxGraphModel>
  </diagram>
</mxfile>
